<?xml version="1.0" encoding="utf-8"?>
<!-- Generator: Adobe Illustrator 22.0.0, SVG Export Plug-In . SVG Version: 6.00 Build 0)  -->
<svg version="1.1" id="Layer_1" xmlns="http://www.w3.org/2000/svg" xmlns:xlink="http://www.w3.org/1999/xlink" x="0px" y="0px"
	 viewBox="0 0 610.8 737.3" style="enable-background:new 0 0 610.8 737.3;" xml:space="preserve">
<style type="text/css">
	.st0{fill:#E6B571;}
	.st1{fill:#E69022;}
	.st2{fill:none;stroke:#E6B571;stroke-miterlimit:10;}
</style>
<g>
	<g>
		<g>
			<g>
				<g>
					<path class="st0" d="M164.8,160.1c0.1,22.3-12.9,42.2-17.3,63.7c-2.1,10.5-1.9,21.1,0.2,31.6c1.2,6.1,3,12.1,5,18
						c1.6,4.6,3,10.9,6.6,14.3c0.8,0.8,2.1,0.2,2.1-0.9c0.1-5.1-3.2-10.7-4.8-15.5c-1.8-5.3-3.3-10.7-4.5-16.3
						c-2.4-12-2.1-23.9,1-35.8c5.2-19.8,14.8-38.1,13.2-59.2C166.3,159.1,164.8,159,164.8,160.1L164.8,160.1z"/>
				</g>
			</g>
			<g>
				<g>
					<path class="st0" d="M267.9,496.9c16-1,31-8.8,45-16c15.5-8,30.9-16.2,46.4-24.3c15-7.8,30-15.8,43.8-25.5
						c12.6-8.9,24-18.8,30.8-32.9c3.7-7.7,6.4-15.9,8.8-24.1c2.7-9.1,5.6-18.8,5.4-28.4c0-2.4-3.2-2.6-4-0.5
						c-3,7.5-4.4,15.7-6.7,23.5c-2.1,7.3-4.5,14.7-7.5,21.7c-6.3,14.7-16.5,25-29.4,34.2c-26,18.4-55.6,31.6-83.8,46.3
						c-16.1,8.4-32.1,15.4-49.3,20.9C264.4,492.5,264.7,497.1,267.9,496.9L267.9,496.9z"/>
				</g>
			</g>
			<g>
				<g>
					<path class="st0" d="M210.4,266.5c4,5.6,6.4,10.8,6.6,17.8c0.1,7-1.5,13.9-3.4,20.6c-2.3,7.9-5.1,15.8-8.6,23.3
						c-2.9,6.2-6.1,12.3-8,18.9c-1.6,5.3-2.7,12-0.1,17.2c2.8,5.5,9.4,8.5,15.1,9.9c3.2,0.8,6.9,1.5,10.2,1.3
						c4.2-0.3,8.2-2.3,12.4-2.8c7.8-1,14.8-1.3,22.6-1c4.1,0.2,8.6-0.5,12.6-1c2.7-0.3,5.1-1.3,6.8-3.4c3.4-4.3,2.4-9.9,0.9-14.7
						c-0.4-1.2-2.3-1-2.3,0.3c0,3.1,0.2,8-1.7,10.6c-3,4.1-8.8,1.1-12.5,0c-7.3-2.2-16.3-0.7-23.3,1.9c-2.1,0.8-4.2,2-6.3,2.7
						c-2.6,0.9-4.6,0.4-7.1,0c-4.7-0.7-9.3-0.6-13.9-1.9c-5.2-1.4-9.8-3-10.5-9.1c-0.5-4.1,0.6-8.4,2-12.2
						c2.8-7.5,7.2-14.4,10.3-21.7c3.5-8.3,6.1-16.8,7.6-25.7c1.8-10.4,2.6-26.5-8-32.8C211,264.4,209.7,265.5,210.4,266.5
						L210.4,266.5z"/>
				</g>
			</g>
			<g>
				<g>
					<path class="st0" d="M271.2,341c0.9,3.7,1.9,7.5,2.6,11.3c0.6,3.8,0.5,7.7,1.5,11.4c0.4,1.4,2.6,1.5,2.9,0
						c1.3-7.6-1.7-16.7-5.1-23.4C272.5,339.2,270.9,340,271.2,341L271.2,341z"/>
				</g>
			</g>
			<g>
				<g>
					<path class="st0" d="M206.5,411.7c6.7,2.7,13.9,4,20.9,5.6c6.9,1.6,13.6,2.7,20.7,2.2c6.9-0.5,13.9-1.3,20.8-2.1
						c6.9-0.8,14.2-1,20.9-2.8c4.5-1.2,3.7-8.4-1.1-8.2c-6.6,0.2-13.4,2-19.9,3.1c-6.5,1.1-13.1,2.4-19.6,3.7
						c-7.9,1.6-14.7,0.9-22.5-0.6c-6.6-1.3-13.1-2.9-19.9-3.1C205.5,409.4,205.4,411.2,206.5,411.7L206.5,411.7z"/>
				</g>
			</g>
			<g>
				<g>
					<path class="st0" d="M216.5,433.1c4.7,5.1,12,10.6,19.3,8.4c4.9-1.5,9.8-3.4,14.7-5.1c4.7-1.7,10.1-3,14.4-5.7
						c2.3-1.4,0.7-4.4-1.7-4c-7.8,1.2-15.9,5.5-23.3,8.4c-4.8,1.9-7.6,3.7-12.7,1c-3.1-1.6-5.7-3.8-8.5-5.7
						C216.9,429.2,215.2,431.7,216.5,433.1L216.5,433.1z"/>
				</g>
			</g>
			<g>
				<g>
					<path class="st0" d="M218.7,402.2c2.7,1.1,5.4,2.3,8.1,3.4c2.3,1,4.9,2.6,7.4,2.5c0.8,0,1.3-1.1,0.7-1.7
						c-1.8-1.8-4.5-2.3-6.9-3.2c-2.9-1.1-5.8-2.2-8.8-3.2C217.9,399.5,217.4,401.7,218.7,402.2L218.7,402.2z"/>
				</g>
			</g>
			<g>
				<g>
					<path class="st0" d="M232.7,408.4c4.1-1.6,8.2-3.2,12.3-4.7c3.3-1.3,6.9-2.2,9.6-4.6c0.8-0.7,0.2-2.2-0.9-2.1
						c-3.6,0.2-6.8,2.1-10,3.5c-4,1.8-8,3.6-12.1,5.4C230.3,406.5,231.3,409,232.7,408.4L232.7,408.4z"/>
				</g>
			</g>
			<g>
				<g>
					<path class="st0" d="M198.2,232.5c-3.3-2.4-6.5-5.1-9.6-7.9c-3-2.8-5.2-5.2-9.2-6.5c-7.2-2.3-15.9-3.3-23.5-2.8
						c-10,0.6-10,14.9,0,15.5c6.6,0.4,13-0.1,19.6,1.3c3.3,0.7,7.1,0,10.2,1.4c3,1.4,5.7,3.6,8.7,5.1
						C198.8,240.7,201.9,235.2,198.2,232.5L198.2,232.5z"/>
				</g>
			</g>
			<g>
				<g>
					<path class="st0" d="M271.7,231.6c9.4-3.1,18.7-3.1,28.4-3c9.8,0,18.4,2.9,27.8,4.6c7.7,1.4,12.9-8.7,5.5-13.1
						c-9.5-5.7-22.5-6.8-33.4-6c-11,0.8-21.7,5.9-30.9,11.6C266.2,227.6,268.1,232.8,271.7,231.6L271.7,231.6z"/>
				</g>
			</g>
			<g>
				<g>
					<path class="st0" d="M160.7,263.7c7.4-0.9,14.3-2.9,21.9-2.4c3.9,0.2,7.7,0.9,11.4,1.9c3.3,0.9,6.6,2.8,10.1,2.7
						c1.4,0,2.8-1.8,1.8-3.2c-4.4-5.8-14.8-7-21.6-7.4c-8-0.5-17.6,0.3-24.4,5C158.4,261.2,158.7,263.9,160.7,263.7L160.7,263.7z"/>
				</g>
			</g>
			<g>
				<g>
					<path class="st0" d="M179,260.4c-13.2-3.7-17.5,17.3-8.1,24c5.7,4,12.2,0.7,16.1-4.1c4.7-5.6,8.3-12.7,6.8-20.1
						c-0.3-1.7-2.4-2.7-4-2.3c-9.1,2.7-30.8,5.2-23.4,19.7c2.2,4.2,6.8,7.7,11.2,3.9c4.5-3.9,5.2-10.7,4.2-16.1
						c-0.5-2.7-4.5-3-5.8-0.8c-2.5,4.3-2.5,8.9-0.3,13.4c0.7,1.4,3,2.1,4.4,1.1c5.3-3.8,6.7-11.4,5.1-17.5c-0.7-2.9-3.3-4.8-6.3-4.2
						c-3.3,0.6-6,4.4-7.5,7.1c-2.6,4.7-4.5,14.2,3.7,14c7.4-0.2,10.9-8.9,11.5-15.1c0.3-2.7-3.1-4-5.1-2.9c-3.8,2-6.7,4.7-9.1,8.2
						c-0.9,1.3-0.4,3.1,0.5,4.2c2.7,3.2,7.3,3.8,11,1.9c4.2-2.2,5.6-6.8,6.2-11.2c0.3-2-1.8-3.3-3.5-3.5c-5.7-0.6-16-0.6-19.5,4.9
						c-3.3,5.2,1.4,12.2,5.9,14.9c5,3.1,11.6,2.9,15.8-1.3c4.1-4.1,5.2-10.7,2-15.7c-1.4-2.2-4.6-2.3-6,0c-1.5,2.6-2.1,5.2-2.3,8.1
						c-0.2,2.2,0.1,7.1-2.5,8c-3.8,1.3-6-15-6.5-17.4c-1-4.3-7.5-2.5-6.6,1.8c1.5,6.9,2.2,22.1,12,22.8c3.9,0.3,7-2.3,8.7-5.6
						c2.3-4.5,0.7-10,3.2-14.3c-2,0-4,0-6,0c3.6,5.5-3.2,11-8.4,7.6c-1-0.7-2.4-2-2.9-3.2c-0.8-2.2,0.1-2.3,1.8-3
						c3.3-1.4,7.7-1.1,11.2-0.7c-1.2-1.2-2.3-2.3-3.5-3.5c-0.3,2.2-2.5,7.6-5.3,4.4c0.2,1.4,0.4,2.8,0.5,4.2
						c1.7-2.5,3.9-4.3,6.6-5.8c-1.7-1-3.4-2-5.1-2.9c-0.1,1.2-2.9,9-3.9,7.7c-0.9-1.2,3.7-7.4,5-7.2c-0.8-0.3-1.5-0.6-2.3-1
						c2,1.9,0.2,9.1-1.8,10.6c1.5,0.4,2.9,0.8,4.4,1.1c-1.3-2.4-1.2-4.6,0.2-7c-1.9-0.3-3.8-0.5-5.8-0.8c0.4,2.1,0.6,7.7-1.8,9
						c-0.9,0.5-1.4-0.6-1.8-1.8c-1.1-3-0.3-3.5,1.7-4.5c5.3-2.7,11.9-3.8,17.6-5.6c-1.3-0.8-2.7-1.5-4-2.3c1.1,5-4.9,19.6-11.9,18.1
						c-7.4-1.6-4.2-15,2.7-15.2C180.8,264.6,181.4,261,179,260.4L179,260.4z"/>
				</g>
			</g>
			<g>
				<g>
					<path class="st0" d="M269.7,261.2c11.2,0.9,22.4-1,33.6,0.6c4.4,0.7,8.7,1.8,12.8,3.4c4.6,1.9,8.3,5.2,12.8,7.1
						c2.8,1.2,5.4-2.7,3.9-5.1c-5.3-8.1-18.5-11.4-27.5-12.8c-11.8-1.8-24.8-1.2-36.3,2.2C266.6,257.5,267.2,261,269.7,261.2
						L269.7,261.2z"/>
				</g>
			</g>
			<g>
				<g>
					<path class="st0" d="M280.5,259.5c-7.9-0.8-13.3,8.2-10,15.1c3.6,7.4,13.4,9.2,19.4,3.6c5.9-5.5,6.2-17.2-3.1-19.1
						c-8-1.6-15.9,6-13.7,14.1c2,7.5,11.5,10.4,17,4.7c5.8-6,0.8-17.5-7.7-17.1c-7.2,0.3-10.3,11.4-2.9,14.1
						c7.6,2.7,15-10.5,7.1-14.1c-8.3-3.7-12.9,9.1-9.3,15c4.8,7.7,15.4-1.3,16.2-7.5c1.2-8.7-9.7-11.7-13.9-4.3
						c-4.1,7.3,3.8,16.6,11.7,14.3c7.8-2.3,10-13,3.4-17.9c-7-5.2-16.3-0.9-18.6,7c-2.2,7.4,3.7,18.5,12.3,12.6
						c6.2-4.3,10.1-17.8,1.2-21.4c-10.1-4.1-15.3,12.8-11.8,19.7c2,3.9,6.4,6.4,10.7,5c4.9-1.6,7.6-7.6,8.1-12.4
						c1.1-10.1-11.9-16-16.1-5.5c-1.7,4.2-1.4,9.8,2.3,12.8c3.6,2.8,8,1.8,10.7-1.6c2.4-3.1-3-7.3-5.5-4.2c-1.3,1.5-1.2-3.7-1.1-4
						c1.4-2.7,2.9-0.6,2.7,2.2c-0.2,1.9-2.1,7.2-4.9,5.4c-2.1-1.3-0.8-9.5,1.5-10.6c2.9-1.3,0.6,5.8-0.2,6.7
						c-3.4,3.9-4.2-1.4-2.6-4.2c1.2-2,3.4-3.3,5.7-2.6c2.9,0.9,3.6,5.2,0.3,6.2c-1.5,0.4-3-0.7-3.5-2c-0.8-2,1.5-3.5,0.2-1.5
						c-0.7,1-1.3,2-2.4,2.7c-2.4,1.7-0.3,0.6-0.9-0.8c0.2,0.5,0.2-3.7-0.8-2.1c1.3-2.1,3.3,2,3.4,2.8c0.5,3.7-3.7,5.1-5.8,2
						c-1.8-2.6-0.1-5.8,2.5-7c4.5-2.1,7,2.2,5.1,6.1c-1.3,2.6-4,4.3-6.9,4c-8.1-1-6.4-10.9,0.4-12.6
						C283.2,262.7,282.5,259.8,280.5,259.5L280.5,259.5z"/>
				</g>
			</g>
			<g>
				<g>
					<path class="st0" d="M202,43c-26.6,8.8-47.7,29.2-58.2,55.1c-0.7,1.7,1.7,3.6,3.2,2.5c10.2-7.7,22-12.6,34.6-14.2
						c-0.4-1.5-0.8-3-1.2-4.5c-24.6,12.4-32.7,41.1-38.7,65.9c-0.6,2.3,2.4,4.3,4.2,2.4c6.7-7,14.1-12.9,22.5-17.8
						c-1.1-1.1-2.3-2.3-3.4-3.4c-8.5,16.4-15.7,33.3-21.5,50.8c-0.8,2.3,2.7,4.6,4.3,2.5c23.3-29.9,55.2-51.9,91.4-62.9
						c-1.3-1-2.7-2-4-3.1c0.1,6.8,0.3,13.6,0.5,20.4c0.1,2.9,3.4,4.2,5.5,2.3c7.9-7.2,15.8-14.5,23.7-21.7c-1.8-1-3.6-2.1-5.3-3.1
						c-3.1,11.2-4.4,22.7-3.6,34.3c0.2,2.7,3.3,4.2,5.4,2.2c15.5-15.4,31.6-30,48.5-43.9c-1.7-1-3.4-2-5.1-3
						c-3.6,13.4-7.3,26.9-10.9,40.3c-0.7,2.5,2.2,5,4.5,3.5c15.8-10.4,32.8-18.5,50.8-24.2c-1.3-1-2.7-2.1-4-3.1
						c0.5,8.9,1,17.9,1.5,26.8c0.3,5-0.9,14.1,6,15.1c3.2,0.5,6.2-1.1,9.1-2.3c4.2-1.6,8.3-3.3,12.5-4.9c8.3-3.3,16.7-6.5,25-9.9
						c-1.4-0.6-2.8-1.1-4.2-1.7c12.4,27.7,24.9,55.9,28.3,86.4c0.5,4.1,6.1,5.3,7.4,1c1.7-5.6,4.3-10.9,7.9-15.5
						c-2.1-0.6-4.2-1.1-6.3-1.7c4.9,18.7,8.7,37.6,11.3,56.7c0.5,3.6,5.3,3.2,7,0.9c8.4-11.7,16.9-23.3,25.3-35
						c2.9-4-3.7-7.8-6.6-3.9c-8.4,11.7-16.9,23.3-25.3,35c2.3,0.3,4.6,0.6,7,0.9c-2.6-19.1-6.4-38-11.4-56.7c-0.7-2.5-4.5-4-6.3-1.7
						c-4.5,5.7-7.8,11.9-9.9,18.9c2.5,0.3,5,0.7,7.4,1c-3.6-31.8-16.5-61.2-29.5-90.1c-0.6-1.3-2.8-2.3-4.2-1.7
						c-12.8,5.2-25.5,10.6-38.2,15.9c-0.9,0.4-2.9,1.6-3.9,1.5c-2.1-0.2-1.6-2-1.7-3.6c-0.2-3.5-0.4-7-0.6-10.5
						c-0.4-7-0.9-14-1.3-21.1c-0.1-2-2-3.7-4-3.1c-18.5,6-36,14.3-52.2,25c1.5,1.2,3,2.3,4.5,3.5c3.6-13.4,7.2-26.9,10.9-40.3
						c0.9-3.2-2.9-4.8-5.1-3c-16.9,13.8-33.1,28.4-48.6,43.8c1.8,0.7,3.6,1.5,5.4,2.2c-0.7-11.1,0.4-21.9,3.4-32.6
						c0.9-3.2-3.1-5.2-5.3-3.1c-7.9,7.2-15.8,14.5-23.7,21.7c1.8,0.8,3.7,1.5,5.5,2.3c-0.2-6.8-0.3-13.6-0.5-20.4
						c-0.1-2-2-3.7-4-3.1c-37.2,11.9-69.9,35-93.7,65.9c1.6,0.7,3.1,1.3,4.7,2c5.6-17.1,12.5-33.7,20.8-49.7
						c1.1-2.2-1.2-4.7-3.4-3.4c-8.7,5.1-16.6,11.3-23.5,18.6c1.4,0.8,2.8,1.6,4.2,2.4c5.6-23.5,13.1-51.2,36.3-63.1
						c2.6-1.4,0.6-4.7-1.8-4.4c-13.3,1.8-25.6,7-36.2,15.1c1.1,0.8,2.2,1.7,3.2,2.5c9.8-24.6,30.1-44,54.8-53.4
						C204.5,45.2,203.8,42.4,202,43L202,43z"/>
				</g>
			</g>
			<g>
				<g>
					<path class="st0" d="M195.6,46.4c34.6-10.1,68.8-21.4,104-29.6c30.2-7.1,65.5-12.8,93.5,4.3c8,4.9,15,11.3,21.8,17.7
						c5.4,5,15.9,15.3,7.1,22.2c-2.4,1.9-0.4,6.1,2.5,6c13.3-0.5,26.5-1.1,39.8-1.6c3.1-0.1,7.2-0.8,9.6,1.5c2,1.9,3.1,5.4,4.3,7.8
						c2.7,5.7,5.4,11.4,7.9,17.2c10.4,23.3,19.4,47.2,27.2,71.5c1.6-1.6,3.2-3.2,4.7-4.7c-8.9-1.4-17.3-4-25.3-8
						c-3-1.5-5.8,1-5.3,4.1c3.5,24.3,6.8,48.6,10.1,72.9c1.9-1.1,3.9-2.2,5.8-3.4c-6.7-5.5-13.3-11-20-16.5
						c-2.1-1.7-6.1-0.8-5.9,2.4c0.8,12.8,1.5,25.6,2.3,38.3c2-0.5,4-1.1,6.1-1.6c-3.4-4.6-7.1-8.5-11.8-11.8
						c-2.7-1.9-5.9,2.3-3.5,4.5c3.5,3.2,6.9,6.7,9.7,10.5c1.7,2.4,6.2,1.9,6.1-1.6c-0.7-12.8-1.3-25.6-1.9-38.3
						c-2,0.8-3.9,1.6-5.9,2.4c6.6,5.5,13.3,11,19.9,16.6c2.8,2.3,6.3,0.1,5.8-3.4c-3.3-24-6.6-48-9.6-72c-1.8,1-3.6,2.1-5.5,3.1
						c8.5,4.5,17.5,7.7,26.9,9.2c2.7,0.4,5.7-1.7,4.7-4.7c-8.6-26.7-18.7-53-30.4-78.5c-4.5-9.9-8-24.2-20.9-24.8
						c-7-0.3-14.1,0.5-21.1,0.8c-8,0.4-15.9,0.7-23.9,1.1c0.8,2,1.7,4,2.5,6c5.3-4.2,6.4-11.6,4.2-17.7c-2.8-7.7-10-13.2-15.9-18.5
						c-13.5-12.1-28.1-21.3-46.2-24.4c-35.8-6.1-73.3,6.8-107.2,16.9c-22.5,6.6-45,13.4-66.7,22.2C193.9,44.9,194.3,46.8,195.6,46.4
						L195.6,46.4z"/>
				</g>
			</g>
			<g>
				<g>
					<path class="st1" d="M181.5,270c2.4,0.8,4.9,1.4,7.3,2.4c2.2,0.9,4.4,2.6,6.8,2.3c2.1-0.3,3.3-2.1,2.4-4.1
						c-1.2-2.6-4.6-3.6-7.1-4.4c-2.8-0.9-5.8-1.6-8.7-1.6C179,264.6,178.6,269,181.5,270L181.5,270z"/>
				</g>
			</g>
			<g>
				<g>
					<path class="st1" d="M288.2,268.8c1.8,3.1,6.2,4.6,9.2,6.4c3.3,2,6.4,5.6,10.2,6.4c1.6,0.3,3.7-1.1,3-3c-1.5-4.1-6-6.4-9.5-8.5
						c-3.3-2-7.8-5-11.7-4.2C288.1,266.2,287.6,267.8,288.2,268.8L288.2,268.8z"/>
				</g>
			</g>
			<g>
				<g>
					<path class="st0" d="M453.9,289.8c3.5-2.6,4.2,3.6,3.9,5.8c-0.4,2.5-1.1,5-1.9,7.4c-1.7,4.9-4.3,9.2-6.8,13.7
						c-1.9,3.3,2.9,7.4,5.5,4.2c5.8-7.2,11.1-18.8,10.3-28.4c-0.6-7.5-8.3-13-14.8-7.8C447.2,287,451,292,453.9,289.8L453.9,289.8z"
						/>
				</g>
			</g>
			<g>
				<g>
					<path class="st0" d="M465.9,259.5c3.3-3.4,8.5-3.2,11.9-0.1c3.3,3,4.5,7.5,4.4,11.8c-0.2,7.9-4,16.3-7.8,23.1
						c-3.6,6.4-8.1,12.2-13.4,17.3c-5.4,5.1-11.6,8.9-17.6,13.2c-2.3,1.6-1,5.9,2,4.8c18.8-6.3,33.6-25.9,40-43.9
						c3.3-9.3,5.2-20.9-1.8-29c-5.7-6.6-15.8-6.9-21.1,0.2C461,258.8,464.2,261.2,465.9,259.5L465.9,259.5z"/>
				</g>
			</g>
			<g>
				<g>
					<path class="st0" d="M440.9,329.8c-0.2,11,2.3,26,15.9,27.5c13.2,1.4,14.2-13.2,19.4-21.4c3.6-5.6,8.8-10,12.8-15.4
						c3.8-5.2,6.8-11,9-17.1c4.4-12,5.5-25.2,4.5-37.8c-0.9-10-2-31.6-15.1-33.4c-4.2-0.6-5.8,4.8-1.8,6.4
						c5.3,2.1,6.4,10.7,7.4,15.5c1.3,6.3,2,12.8,2,19.3c0.1,12.7-2.3,25.5-8.6,36.7c-6.1,10.8-16.5,18-20.6,29.9
						c-1.8,5.2-4,12.6-11.1,9.3c-7.3-3.3-7.4-12.8-7.8-19.6C446.8,326,441,325.9,440.9,329.8L440.9,329.8z"/>
				</g>
			</g>
		</g>
		<g>
			<g id="XMLID_1_">
				<g>
					<path class="st0" d="M470.1,236.6c-8,11-15.9,22-23.8,32.9c-2.6-19.1-6.3-38.1-11.3-56.7c-4.1,5.1-7.1,10.9-8.9,17.2
						c-3.3-30.9-16.2-59.9-28.9-88.2c-13.7,5.5-27.3,11.1-41,16.6c-2,0.8-4.5,1.5-5.9-0.1c-0.8-0.9-0.9-2.2-1-3.4
						c-0.7-11.5-1.4-23-2-34.5c-18.2,5.7-35.6,14-51.5,24.6c3.6-13.4,7.3-26.9,10.9-40.3c-16.9,13.8-33.1,28.4-48.5,43.8
						c-0.9-11.2,0.3-22.6,3.5-33.4c-7.9,7.2-15.8,14.5-23.7,21.7c-0.2-6.8-0.3-13.6-0.5-20.4c-36.4,11.2-69.2,33.9-92.4,64.1
						c5.6-17.3,12.7-34.2,21.1-50.3c-8.5,4.9-16.3,11-23,18.2c6-25,14.3-53.2,37.5-64.5c-12.9,1.5-25.4,6.7-35.7,14.7
						c9.8-25.1,31-45.4,56.5-54.2l-0.4-1.3c30.6-10.5,61.7-19.7,93-27.7c32.6-8.3,69.1-14.8,98.4,1.9c9.1,5.2,17,12.5,24.7,19.6
						c3.9,3.6,7.9,7.3,9.8,12.3c1.9,4.9,1.1,11.3-3.3,14.3c13.9-0.6,27.9-1.2,41.8-1.8c3.1-0.1,6.5-0.2,9.2,1.6
						c2.1,1.4,3.3,3.8,4.4,6.1c14.6,30.1,27.1,61.2,37.2,93c-9.1-1.4-18-4.3-26.1-8.6c3.3,24.3,6.6,48.6,9.9,72.9
						c-6.7-5.5-13.3-11-20-16.5c0.7,12.8,1.4,25.6,2.1,38.3c-2.9-4.1-6.4-7.8-10.4-10.9L470.1,236.6z"/>
				</g>
				<g>
					<path class="st2" d="M164.6,160.1c1.4,24.9-14.9,47.6-17.1,72.5c-1.7,18.6,4.6,37,11.7,54.3"/>
					<path class="st2" d="M266.9,494.2c17.3-3.1,33.2-11.3,48.8-19.4c12.5-6.5,25-13,37.5-19.5c18.6-9.7,37.2-19.4,53.8-32.2
						c5.8-4.5,11.4-9.3,15.8-15.1c5.9-7.7,9.6-16.8,12.7-25.9c4.1-11.9,7.2-24.1,9.4-36.4"/>
					<path class="st2" d="M210.4,265.9c8.8,7.5,8.6,21.2,6.2,32.5c-2.3,10.7-5.8,21.1-10.6,30.9c-4.1,8.5-9.1,17-9.4,26.4
						c-0.1,3,0.4,6.1,2.2,8.5c1.6,2.1,3.9,3.3,6.3,4.3c8.2,3.4,17.4,4.1,26,2c3.3-0.8,6.5-2,9.8-2.7c8.3-1.7,16.8-0.2,25.3,0.3
						c1.7,0.1,3.5,0.1,5.1-0.5c2.6-1.1,3.8-3.4,4.3-6.2c0.5-2.7,0.2-5.8-0.3-8.5"/>
					<path class="st2" d="M271.1,340.7c2.6,6.6,4.1,13.7,4.5,20.8c0,0.6,0,1.1,0.1,1.7"/>
					<path class="st2" d="M205.8,410.6c7.1,1.5,14.1,3,21.2,4.5c4.4,0.9,8.8,1.9,13.2,1.9c3.3,0,6.5-0.5,9.7-0.9
						c12.6-1.8,25.1-3.7,37.7-5.5"/>
					<path class="st2" d="M216.7,431.8c2.8,2.4,5.8,4.6,9,6.4c1.6,0.9,3.2,1.7,5,1.7c1.4,0,2.8-0.5,4.1-1
						c9.3-3.4,18.6-6.8,27.9-10.3"/>
					<path class="st2" d="M218,401.1c4.8,1.9,9.5,3.7,14.3,5.6c0.3,0.1,0.7,0.3,1,0.4"/>
					<path class="st2" d="M231.3,407.1c0.3-0.1,0.6-0.3,0.9-0.4c6.8-2.8,13.7-5.6,20.5-8.5"/>
					<path class="st2" d="M196.9,236.4c-4.1-1.9-7.4-5.1-11.3-7.4c-9.5-5.7-21.2-5.8-32.3-5.8"/>
					<path class="st2" d="M269.8,228.5c19.3-9.3,42.6-9.6,62.1-0.9"/>
					<path class="st2" d="M159.7,261.9c13.8-5.5,30-4.8,43.3,1.9"/>
					<path class="st2" d="M268.7,258.9c10.4-1.1,20.9-2.2,31.4-1.2c10.4,1.1,20.9,4.4,28.8,11.3"/>
					<path class="st2" d="M201.3,44.4c-25.4,8.8-46.6,29.2-56.5,54.2c10.3-8,22.8-13.2,35.7-14.7c-23.1,11.3-31.5,39.5-37.5,64.5
						c6.7-7.2,14.5-13.3,23-18.2c-8.5,16.1-15.5,32.9-21.1,50.3c23.2-30.2,56-52.9,92.4-64.1c0.2,6.8,0.3,13.6,0.5,20.4
						c7.9-7.2,15.8-14.5,23.7-21.7c-3.2,10.8-4.4,22.2-3.5,33.4c15.5-15.4,31.7-30,48.5-43.8c-3.6,13.4-7.3,26.8-10.9,40.3
						c15.9-10.6,33.3-18.9,51.5-24.6c0.7,11.5,1.4,23,2,34.5c0.1,1.2,0.2,2.5,1,3.4c1.4,1.6,4,0.9,5.9,0.1
						c13.7-5.5,27.3-11.1,41-16.6c12.7,28.4,25.6,57.3,28.9,88.2c1.8-6.3,4.8-12.1,8.9-17.2c5,18.6,8.8,37.6,11.3,56.7
						c7.9-11,15.9-22,23.8-32.9c0.5-0.7,1-1.4,1.5-2.1"/>
					<path class="st2" d="M194.4,45.4c2.2-0.8,4.4-1.5,6.6-2.3c30.6-10.5,61.7-19.7,93-27.7c32.6-8.3,69.1-14.8,98.4,1.9
						c9.1,5.2,17,12.5,24.7,19.6c3.9,3.6,7.9,7.3,9.8,12.3c1.9,4.9,1.1,11.3-3.3,14.3c13.9-0.6,27.9-1.2,41.8-1.8
						c3.1-0.1,6.5-0.2,9.2,1.6c2.1,1.4,3.3,3.8,4.4,6.1c14.6,30.1,27.1,61.2,37.2,93c-9.1-1.4-18-4.3-26.1-8.6
						c3.3,24.3,6.6,48.6,9.9,72.9c-6.7-5.5-13.3-11-20-16.5c0.7,12.8,1.4,25.6,2.1,38.3c-2.9-4.1-6.4-7.8-10.4-10.9"/>
					<path class="st2" d="M451.3,287c2.2-2.3,6.4-1,8,1.8c1.6,2.7,1.2,6.2,0.6,9.3c-1.5,7.3-4.6,14.3-8.9,20.4"/>
					<path class="st2" d="M463.4,257.9c2.9-4,8.9-4.8,13.2-2.4c4.3,2.3,6.9,7.1,7.5,12c0.7,4.9-0.4,9.8-1.8,14.5
						c-6.2,19.4-20.4,36-38.6,45.1"/>
					<path class="st2" d="M443,329.8c0.1,6,0.3,12.2,3.3,17.4c3,5.1,9.9,8.5,15.2,5.6c5.2-2.9,6.1-9.9,8.5-15.3
						c2.8-6.4,8.3-11.1,12.8-16.5c16.5-19.9,18.2-48.8,11.6-73.9c-1.3-5-3.8-10.7-8.9-11.6"/>
				</g>
			</g>
		</g>
	</g>
	<g>
		<g>
			<path class="st0" d="M194.1,464.2c-12.7,14.2-26.7,26.8-42.7,37.2c-15.6,10.2-32.5,18.4-49.6,25.7c-15.9,6.8-34.5,11.8-46.8,24.7
				c-13.2,13.8-15.5,34.3-20.2,52c-6.3,23.8-14.8,46.7-22.4,70.1c-0.8,2.6,3.3,4.4,4.4,1.9c8.9-19.2,15.4-39.9,21.2-60.3
				c2.8-9.9,5.3-19.9,7.8-29.9c2.4-9.5,5.3-19.3,11.6-27c11.3-14,30.9-19,46.8-25.9c16.9-7.2,33.5-15.4,48.9-25.4
				c16.8-10.9,32.7-24.3,43.4-41.4C197.3,464.6,195.2,462.9,194.1,464.2L194.1,464.2z"/>
		</g>
	</g>
	<g>
		<g>
			<path class="st0" d="M248.4,498.3c5.2,11.4,11.8,22,17.5,33.1c2.8,5.3,5.4,10.7,7.5,16.3c2,5.3,2.7,11.2,5,16.3
				c0.7,1.6,3,0.6,3.1-0.8c0.3-5.5-2.3-11.5-4.2-16.5c-2.1-5.4-4.5-10.6-7.2-15.7c-6-11.5-12.5-23-19.8-33.8
				C249.5,495.9,247.8,497,248.4,498.3L248.4,498.3z"/>
		</g>
	</g>
	<g>
		<g>
			<path class="st0" d="M278.4,567.6c4.5,0,4.5-6.9,0-6.9C273.9,560.7,273.9,567.6,278.4,567.6L278.4,567.6z"/>
		</g>
	</g>
	<g>
		<g>
			<path class="st0" d="M276.6,567c20.6,19.3,44.3,34.7,70.5,45.4c3.1,1.3,4.3-3.3,2.1-4.9c-10-7.7-19.1-16.5-26.9-26.4
				c-8-10.1-14.7-21.1-22.4-31.4c-6.8-9-14.5-16.9-22.7-24.5c-8.8-8.1-17.4-16.3-23.2-26.9c-1.3-2.4-5.1-0.3-3.7,2.2
				c5.6,10.1,13.7,18.3,22,26.2c9.3,8.9,18.2,17.7,25.8,28.2c7.4,10.3,14.1,21.1,22,31c7.7,9.8,16.6,18.6,26.5,26.2
				c0.7-1.6,1.4-3.3,2.1-4.9c-25.3-10.4-48.7-24.9-69.1-43C277.5,562.5,274.7,565.2,276.6,567L276.6,567z"/>
		</g>
	</g>
	<g>
		<g>
			<path class="st0" d="M393.8,535.4c0.3,7.5-4.3,13.8-8,19.9c-3.7,6.1-7.2,12.3-10.4,18.6c-6.3,12.3-11.7,25-16.4,38
				c-1,2.8,3.4,3.9,4.4,1.2c5.3-14.7,11.6-28.9,18.9-42.7c3.4-6.5,7.2-12.7,10.8-19c2.9-5.2,4.7-10.5,3.7-16.4
				C396.5,533.3,393.7,533.7,393.8,535.4L393.8,535.4z"/>
		</g>
	</g>
	<g>
		<g>
			<path class="st0" d="M421.9,551.4c-1.7,5-2.7,10.3-4.6,15.3c-2,5.1-4.3,10.1-6.7,15c-4.2,8.6-9.4,17.9-10.4,27.6
				c-0.2,2.4,3.3,2.6,4,0.5c1.9-5.4,3.4-10.9,5.8-16.2c2.1-4.7,4.4-9.4,6.6-14.1c3.9-8.4,8.9-18.4,7.7-27.9
				C424.1,550.4,422.3,550,421.9,551.4L421.9,551.4z"/>
		</g>
	</g>
	<g>
		<g>
			<path class="st0" d="M448,377.4c6.8,39.3,15.7,78.3,24.1,117.3c8.2,38,16.8,76,29.2,112.9c0.9,2.6,4.9,1.5,4.1-1.1
				c-25.2-74.7-36-153.3-55.9-229.4C449.2,376,447.9,376.4,448,377.4L448,377.4z"/>
		</g>
	</g>
	<g>
		<g>
			<path class="st0" d="M396.1,537.4c5.2,1.2,9.9,1.5,14.9,3.7c4.2,1.9,8.1,4.4,11.8,7c8.9,6.3,17.6,12.9,26.4,19.4
				c8.7,6.5,17.5,12.9,26.3,19.4c8.5,6.2,17.4,12.2,24.8,19.7c1.4,1.4,3.4-0.7,2.1-2.1c-6.7-7.9-15.2-13.6-23.5-19.6
				c-9.9-7.2-19.7-14.3-29.6-21.5c-9.2-6.7-18.2-13.8-27.8-19.9c-6.8-4.4-17-10.1-25.4-7.6C395.4,536.1,395.4,537.2,396.1,537.4
				L396.1,537.4z"/>
		</g>
	</g>
	<g>
		<g>
			<path class="st0" d="M396.3,533.7c16.2-19,25.6-43.7,33.9-66.9c4.4-12.3,8.4-24.8,10.1-37.7c1.4-10.5,1.9-24.9-4.1-34.2
				c-1.7-2.6-5.4-0.9-4.8,2c1.2,6,3.5,11.4,4,17.6c0.5,6.1,0.2,12.3-0.8,18.4c-1.8,11.7-5.6,23.1-9.5,34.3
				c-8,22.9-17.9,44.3-30.8,64.9C393.6,533.4,395.4,534.8,396.3,533.7L396.3,533.7z"/>
		</g>
	</g>
	<g>
		<g>
			<path class="st0" d="M396.8,534c1.8,2.3,4.4,2.2,7.1,3c2.9,0.8,5.8,1.9,8.6,3.2c5,2.3,9.5,5.3,13.9,8.6
				c9,6.8,16.8,14.9,25.2,22.5c8,7.3,16.5,13.5,26.1,18.5c4.7,2.5,9.6,4.8,14,7.9c2.5,1.7,4.9,3.6,6.8,5.9c1.7,1.9,2.7,4.1,4.9,5.5
				c1.3,0.8,2.8-0.3,2.8-1.6c0.2-4.9-4.9-9.3-8.4-12.1c-4.3-3.5-9.2-6.1-14.1-8.7c-11-5.8-20.6-12.5-29.9-20.8
				c-8.5-7.6-16.7-15.7-26.1-22.2c-4.4-3.1-9.2-5.8-14.2-7.8c-4.4-1.8-12.1-5.5-16.6-3.1C396.5,533,396.5,533.6,396.8,534L396.8,534
				z"/>
		</g>
	</g>
	<g>
		<g>
			<path class="st0" d="M324.1,601.3c-2.6-0.7-4.9,0.2-6.2,2.6c-1.6,3,0,6.2,1.4,9c5.5,10.5,11.7,20.8,17.5,31.1
				c2.8,4.9,5.5,9.8,8.3,14.7c2.8,4.9,5.3,10.4,8.8,14.9c5.7,7.3,17.9,5.6,26.1,6.1c4.3,0.3,9.8,1.5,14,0.3c4.3-1.2,5.5-4.9,6.7-8.8
				c3.1-10.6,5.9-21.4,8.5-32.2c1.9-7.7,7-19.9,1.6-27.2c-4.4-5.9-13.1-5.5-19.3-3.1c-5.6,2.2-10.5,5.4-16.7,5.6
				c-6.3,0.2-12.6-1.9-18.3-4.3c-10.5-4.4-21.2-10.9-33-9.9c-4.1,0.4-4.2,6.3,0,6.5c16.2,0.8,29.1,11.8,44.9,13.8
				c6.9,0.9,13.2-0.5,19.4-3.6c5.6-2.8,18.9-8.8,18.9,2.8c0,4-1.5,8.2-2.4,12c-1,4-2,8-3,12c-2.1,8.3-4.4,16.6-6.7,24.8
				c-0.7,2.4-1.6,4.6-4.1,5.3c-1.8,0.5-4.8-0.2-6.6-0.3c-4.3-0.2-8.5-0.3-12.8-0.5c-4.5-0.2-10.2,0.5-13.2-3.5
				c-2.5-3.4-4.4-7.4-6.5-11.1c-4.8-8.3-9.6-16.6-14.5-24.8c-2.5-4.3-5-8.5-7.6-12.8c-1.3-2.3-2.7-4.6-4-6.8c-0.3-0.5-5.6-9-1.8-8.6
				C325.8,605.5,326.2,601.9,324.1,601.3L324.1,601.3z"/>
		</g>
	</g>
	<g>
		<g>
			<path class="st0" d="M358.1,673.2c-3,2.9-4.5,7.2-6,11c-2.1,5-3.7,10.2-5,15.5c-2.1,9-4.2,19.5-2.4,28.7c0.2,1.2,2.1,1.2,2.4,0
				c1.9-9.1,1.8-18.5,4.1-27.6c1.1-4.4,2.4-8.7,3.9-13c1.6-4.4,4.3-8.8,5-13.5C360.2,673.3,359,672.3,358.1,673.2L358.1,673.2z"/>
		</g>
	</g>
	<g>
		<g>
			<path class="st0" d="M390,677.8c7.2,6.5,10.7,15.6,13.5,24.6c1.5,4.8,2.9,9.6,4.4,14.4c1.5,4.9,2.5,10.4,5.3,14.7
				c1.3,2.1,5,1.4,4.9-1.3c-0.3-5.7-2.9-11.4-4.7-16.8c-1.8-5.4-3.4-10.9-5.5-16.1c-3.5-8.8-7.7-16.7-15.9-22
				C390.5,674.2,388.6,676.5,390,677.8L390,677.8z"/>
		</g>
	</g>
	<g>
		<g>
			<path class="st0" d="M314.3,524.8c8.1,0,15.8-2.6,22.2-7.5c4.7-3.6,13.9-12.1,11.6-18.8c-0.4-1.2-1.7-1.8-2.9-1.2
				c-2.5,1.4-3.5,4.2-5,6.5c-1.9,3.1-4.2,5.8-7,8.1c-5.5,4.7-12.4,7.6-19.5,8.6C311.3,520.9,311.9,524.8,314.3,524.8L314.3,524.8z"
				/>
		</g>
	</g>
	<g>
		<g>
			<path class="st0" d="M276.9,564c-11.1,11.6-20.8,24.8-30.9,37.2c-10.2,12.5-20.3,25.1-30.4,37.7c-1.9,2.3,1.4,5.6,3.3,3.3
				c10.4-12.8,20.9-25.5,31.2-38.3c10-12.4,20.8-24.5,29.7-37.7C280.9,564.5,278.3,562.5,276.9,564L276.9,564z"/>
		</g>
	</g>
	<g>
		<g>
			<path class="st0" d="M243.4,497.7c-42.2,37.2-38.4,101.1-34.1,151.8c0.2,1.9,2.3,2.9,3.8,1.6c3.8-3.5,7.7-8.3,7.4-13.8
				c-0.1-1.3-1.7-1.8-2.4-0.7c-2.6,4.2-4.1,8.2-8.1,11.3c1.3,0.5,2.5,1,3.8,1.6c-1.9-28.1-4.1-56.7,0.9-84.6
				c4.3-24,14.3-46.9,30.9-65C246.9,498.4,244.8,496.4,243.4,497.7L243.4,497.7z"/>
		</g>
	</g>
	<g>
		<g>
			<path class="st0" d="M430,405.1c0.1,13.8,1.1,27.6,0.7,41.4c-0.1,3.1,4.7,3.1,4.8,0c0.4-13.8,0.5-28.2-1.8-41.9
				C433.4,402.5,430,403.1,430,405.1L430,405.1z"/>
		</g>
	</g>
	<g>
		<g>
			<path class="st0" d="M456.3,381.7c12.8,7.8,26.3,14.6,39.6,21.6c12.2,6.4,24.3,12.8,37.2,17.6c12.1,4.5,24.4,8,36.6,12.2
				c6.2,2.1,12.3,4.4,18.2,7.1c3.1,1.4,6.1,2.9,9.1,4.5c2.6,1.4,4.5,3.1,7.5,2.8c1.3-0.1,2.7-1.4,2.2-2.8c-1.9-5.1-9.3-7.4-13.9-9.5
				c-5.4-2.5-11-4.6-16.6-6.6c-12.7-4.4-25.7-7.8-38.4-12.2c-28.1-9.6-53.4-25.3-80.7-36.7C455.9,379.2,455.2,381,456.3,381.7
				L456.3,381.7z"/>
		</g>
	</g>
	<g>
		<g>
			<path class="st0" d="M158.3,295.3c-4,4.2-4,12.8-4,18.3c-0.1,6.9,0.9,13.7,2.3,20.4c3.3,15.7,8.3,31.1,13.1,46.3
				c4.8,15.2,9.9,30.2,15.4,45.2c2.7,7.5,5.5,14.9,8.4,22.3c2.8,7.2,5.4,14.8,9.4,21.4c0.8,1.4,3,0.5,2.6-1.1
				c-1.9-7.3-5.1-14.4-7.8-21.5c-2.8-7.1-5.5-14.3-8.1-21.4c-5.1-14.1-10-28.2-14.5-42.5c-4.5-14.1-8.9-28.4-12.7-42.7
				c-2-7.5-3.7-15.1-4.2-22.9c-0.2-3.3-0.2-6.6,0.1-9.9c0.4-3.7,2.1-7.7,1.7-11.4C159.9,295.2,158.9,294.6,158.3,295.3L158.3,295.3z
				"/>
		</g>
	</g>
	<g>
		<g>
			<path class="st0" d="M201.3,463.9c3.8,8.3,11.9,15.4,18.7,21.3c7.2,6.2,15.3,10.8,24.7,12.4c9.1,1.6,18.5,0.8,27.6-1.2
				c7.3-1.6,16.7-4,18.9-12.1c0.4-1.5-1.4-2.5-2.5-1.5c-5.7,5.3-12.8,7.5-20.3,9.1c-8.4,1.8-17.3,2.4-25.7,0.5
				c-8.6-1.9-15.7-6.6-22.3-12.4c-6-5.3-12-10.9-16.5-17.6C202.8,460.8,200.5,462.2,201.3,463.9L201.3,463.9z"/>
		</g>
	</g>
</g>
</svg>
