<?xml version="1.0" encoding="utf-8"?>
<!-- Generator: Adobe Illustrator 22.0.0, SVG Export Plug-In . SVG Version: 6.00 Build 0)  -->
<svg version="1.1" id="Layer_1" xmlns="http://www.w3.org/2000/svg" xmlns:xlink="http://www.w3.org/1999/xlink" x="0px" y="0px"
	 viewBox="0 0 200 89.8" style="enable-background:new 0 0 200 89.8;" xml:space="preserve">
<style type="text/css">
	.st0{fill:#FFFFFF;}
</style>
<g>
	<g>
		<g>
			<path class="st0" d="M16.8,35.9c-4.7,4.8-5-5-4.6-6.1c0.6-2.1,1.9-3.7,3.5-5.1c3.1-2.7,8.7-5.6,12.4-2.7
				c4.2,3.4,4.3,10.9,3.4,15.8c-1,5.5-3.5,10.8-7.3,15c-1.8,2.1-13.1,11.5-15.5,6.1c-0.2,0.9-0.5,1.8-0.7,2.7
				c9-5.8,18.1-11.5,27.1-17.3c-0.9-0.9-1.8-1.8-2.7-2.7c-1.9,3.7-2.3,7.4-1.4,11.5c0.3,1.3,1.9,1.7,2.9,1.2
				c4.6-2.3,7.8-5.8,10-10.3c1.1-2.3-2.3-4.3-3.5-2c-1.4,2.7-4.1,7.8-2,10.6c2.1,2.7,5.7,0.7,7.8-0.8c2.7-1.8,6.9-5.3,6.8-8.9
				c-0.1-2.6-2.1-4.3-4.6-3.6c-1.2,0.3-2,1.9-1.2,2.9c2.8,3.9,3.8,8.3,3.2,13.1c-0.3,1.8,1.8,3.5,3.3,1.9
				c10.4-10.8,18-23.5,23.3-37.4c0.8-2.2-2.5-3.4-3.7-1.5c-5.6,9.3-11.7,21.3-12.7,32.3c-0.2,2.5,0.6,5.1,3.5,5.5
				c4.2,0.5,9-4.7,11.4-7.5c1.4-1.6-0.4-4.4-2.4-3.1c-2.6,1.6-3,5.4-0.6,7.5c4.3,3.8,8.1-2.3,11.6-3.7c-0.8-1-1.5-2-2.3-2.9
				c-0.9,1.7-1.8,3.3-2.7,5c-1.1,2.1,1.4,3.9,3.1,2.4c3.2-2.7,5.1-4,9.4-0.2c1,0.9,1.4,1.8,2.8,2.2c2.1,0.6,3.8-0.4,4.8-2.2
				c1.2-2.3-2.2-4.3-3.5-2c0,0.1-3.1-3.4-3.5-3.7c-1.2-1-2.5-1.4-4.1-1.4c-3.4,0-6.2,2.4-8.7,4.4c1,0.8,2.1,1.6,3.1,2.4
				c0.9-1.7,1.8-3.3,2.7-5c0.7-1.4-0.5-3.7-2.3-2.9c-1.2,0.5-1.9,0.9-3,1.6c-0.4,0.3-0.9,0.7-1.3,1.1c-1,1.7-2.2,2-3.6,0.8
				c-0.8-1-1.6-2.1-2.4-3.1c-1.2,1.4-2.9,3.5-4.5,4.3c-0.7,1-1.5,1.2-2.4,0.6c-1.3,0-1.5-0.7-0.6-2c0-2.8,1.8-6.7,2.7-9.3
				c2.3-6.7,5.3-13,9-19c-1.2-0.5-2.4-1-3.7-1.5c-5,13.3-12.4,25.4-22.3,35.7c1.1,0.6,2.2,1.3,3.3,1.9c0.8-5.8-0.1-11.3-3.6-16.2
				c-0.4,1-0.8,2-1.2,2.9c-2.2,0.6-3.3,5.4-6,5.6C40.8,49,43,45.7,43.9,44c-1.2-0.7-2.3-1.3-3.5-2c-2,4-4.6,6.9-8.6,8.9
				c1,0.4,2,0.8,2.9,1.2c-0.6-3-0.4-5.6,1-8.4c0.9-1.7-0.9-3.9-2.7-2.7C24.1,46.6,15,52.4,6,58.2c-1,0.6-1.2,1.7-0.7,2.7
				c4.2,9.5,18.9-1.8,22.7-6.3c6.7-8.1,10.7-20.9,6-30.9C29,13,15.6,16.5,10,25c-2.5,3.8-3.4,9.8-0.1,13.5c2.7,3.1,6.9,3.2,9.7,0.3
				C21.4,36.9,18.6,34.1,16.8,35.9L16.8,35.9z"/>
		</g>
	</g>
	<g>
		<g>
			<path class="st0" d="M72.4,36.9c0.9,0.6,1.7,1.1,2.6,1.7c0.9,0.6,2.2,0.2,2.7-0.7c0.5-1,0.2-2.1-0.7-2.7
				c-0.9-0.6-1.7-1.1-2.6-1.7c-0.9-0.6-2.2-0.2-2.7,0.7C71.1,35.1,71.4,36.3,72.4,36.9L72.4,36.9z"/>
		</g>
	</g>
	<g>
		<g>
			<path class="st0" d="M60.7,29.4c7.5,0,15-0.2,22.5-0.5c2.6-0.1,2.6-4.1,0-4c-7.5,0.3-15,0.5-22.5,0.5
				C58.1,25.4,58.1,29.4,60.7,29.4L60.7,29.4z"/>
		</g>
	</g>
	<g>
		<g>
			<path class="st0" d="M118.7,21.5c0.2-0.7,0.4-1.4,0.5-2c-1.3,0-2.6,0-3.9,0c2.3,13.3-1.6,26.3-6.9,38.4c1.2,0.5,2.4,1,3.7,1.5
				c0.1-0.4,0.1-0.7,0.2-1.1c0.4-2.5-3.4-3.6-3.9-1.1c-0.1,0.4-0.1,0.7-0.2,1.1c-0.3,2,2.7,3.8,3.7,1.5c5.8-13.2,9.8-27,7.3-41.5
				c-0.3-2-3.4-1.8-3.9,0c-0.2,0.7-0.4,1.4-0.5,2C114.2,22.9,118,23.9,118.7,21.5L118.7,21.5z"/>
		</g>
	</g>
	<g>
		<g>
			<path class="st0" d="M130.2,24.9c-2.2,11.3-4.4,22.6-6.6,33.9c1.3,0,2.6,0,3.9,0c-2-7.6-6.6-14.3-14-17.7c-0.5,1.2-1,2.4-1.5,3.7
				c8,2.5,16.1,3.8,24.4,3.8c-0.3-1.2-0.7-2.5-1-3.7c-6.6,3.2-4.8,15.8,3.5,14.2c9.2-1.8,6.7-16-2.2-15.9c-2.6,0-2.5,3.8,0,4
				c5.3,0.5,10.3-0.1,15.4-1.7c-0.5-1.2-1-2.4-1.5-3.7c-4,2.4-7.7,5.9-7.3,11c0.3,3.4,2.6,6.7,6.3,6.3c8.7-1,12.4-19.1,1.8-18.1
				c-1.9,0.2-2.8,2.7-1,3.7c3.6,2.1,7.3,2.5,11.2,0.9c-0.8-0.6-1.7-1.3-2.5-1.9c-0.4,5.1-1.1,10.1-2.3,15.1c1.3,0.2,2.6,0.4,3.9,0.5
				c0-4.3,1.3-8.7,4.7-11.6c2.6-2.1,2.2-0.8,2.2,1.4c0,2.6-0.4,5.2-0.6,7.8c-0.1,1.1,1,2,2,2c5.9,0.1,10.3-3.4,12.7-8.6
				c1-2.1-1.4-3.9-3.1-2.4c-3,2.5-6.4,8-4.9,12.1c1.1,3.2,4,2.6,6.1,0.8c3-2.6,6.4-7.7,6.3-11.9c0-2.5-2.4-5.3-4.9-3.4
				c-1.9,1.4-1,3.8-0.9,5.8c0.2,3.6,0.5,7.2,0.7,10.8c0.4,6.5,3.7,18.7-5,20.5c-1,0.2-3.2,0.6-4.4,0.3c-5.5-1.5-2.6-5-0.6-7.2
				c2.4-2.8,5.2-5.3,7.9-7.8c5.6-5.3,11.6-10.3,17.7-15.1c2-1.5,0-5-2-3.5c-8.6,6.6-16.8,13.8-24.5,21.5c-3.7,3.7-10.2,13-1.6,15.7
				c5.6,1.7,13.9-0.1,16.4-5.8c1.9-4.4,0.7-10.1,0.4-14.7c-0.2-3-0.4-5.9-0.6-8.9c-0.1-1.3-1.4-8.3-0.7-8.9
				c-0.6,0.2-1.3,0.3-1.9,0.5c1,0.2-3.6,7.7-4.1,8.2c-0.5,0.5-1.6,4.5-0.1-1.2c0.6-2.1,1.9-3.8,3.5-5.2c-1-0.8-2.1-1.6-3.1-2.4
				c-1.8,3.9-4.7,6.7-9.3,6.6c0.7,0.7,1.3,1.3,2,2c0.3-3.6,3.4-16.9-4.4-14.5c-6.8,2.1-9.9,10.4-9.8,16.8c0,2.2,3.4,2.8,3.9,0.5
				c1.3-5.3,2.1-10.7,2.5-16.2c0.1-1.2-1.4-2.4-2.5-1.9c-2.9,1.2-5.3,1.2-8.1-0.5c-0.3,1.2-0.7,2.5-1,3.7c3.2-0.3,2.4,4.8,1.7,6.4
				c-0.8,2.2-5.3,4.5-5.9,1.1c-0.6-3.4,2.8-5.8,5.2-7.3c1.9-1.1,0.7-4.4-1.5-3.7c-4.7,1.5-9.4,2-14.3,1.6c0,1.3,0,2.7,0,4
				c3.9,0.8,5,3.1,3.2,6.9c-1.5,1.7-2.6,1.6-3.4-0.3c-1.7-1.8-1.5-4.3,0.9-5.5c1.8-0.9,0.9-3.7-1-3.7c-8,0-15.7-1.3-23.3-3.7
				c-2.1-0.7-3.6,2.7-1.5,3.7c6.4,2.9,10.3,8.5,12.1,15.3c0.5,1.8,3.5,2,3.9,0c2.2-11.3,4.4-22.6,6.6-33.9
				C134.6,23.5,130.7,22.4,130.2,24.9L130.2,24.9z"/>
		</g>
	</g>
</g>
</svg>
